<svg id="visual" viewBox="0 0 960 540" width="960" height="540" xmlns="http://www.w3.org/2000/svg" xmlns:xlink="http://www.w3.org/1999/xlink" version="1.1"><rect x="0" y="0" width="960" height="540" fill="#3C658A"></rect><path d="M0 348L137 321L274 402L411 362L549 340L686 338L823 399L960 329L960 541L823 541L686 541L549 541L411 541L274 541L137 541L0 541Z" fill="#e1ffff"></path><path d="M0 412L137 390L274 426L411 415L549 390L686 355L823 370L960 381L960 541L823 541L686 541L549 541L411 541L274 541L137 541L0 541Z" fill="#c8e5e5"></path><path d="M0 396L137 420L274 414L411 437L549 423L686 411L823 416L960 442L960 541L823 541L686 541L549 541L411 541L274 541L137 541L0 541Z" fill="#afcccc"></path><path d="M0 487L137 439L274 446L411 448L549 482L686 480L823 462L960 443L960 541L823 541L686 541L549 541L411 541L274 541L137 541L0 541Z" fill="#97b3b3"></path><path d="M0 484L137 476L274 480L411 514L549 472L686 501L823 492L960 486L960 541L823 541L686 541L549 541L411 541L274 541L137 541L0 541Z" fill="#7f9b9b"></path></svg>