<?xml version="1.0" encoding="UTF-8"?>
<svg width="700pt" height="700pt" version="1.1" viewBox="0 0 700 700" xmlns="http://www.w3.org/2000/svg">
 <path d="m571.67 116.67c0 3.0938-1.2305 6.0586-3.418 8.25-2.1875 2.1875-5.1562 3.4141-8.25 3.4141h-233.33c-6.4453 0-11.668-5.2227-11.668-11.664 0-6.4453 5.2227-11.668 11.668-11.668h233.33c3.0938 0 6.0625 1.2305 8.25 3.418s3.418 5.1562 3.418 8.25zm-11.668 151.66h-233.33c-6.4453 0-11.668 5.2266-11.668 11.668s5.2227 11.668 11.668 11.668h233.33c6.4414 0 11.668-5.2266 11.668-11.668s-5.2266-11.668-11.668-11.668zm0 163.33-233.33 0.003907c-6.4453 0-11.668 5.2227-11.668 11.664 0 6.4453 5.2227 11.668 11.668 11.668h233.33c6.4414 0 11.668-5.2227 11.668-11.668 0-6.4414-5.2266-11.664-11.668-11.664zm-396.67-373.33h46.668c9.2812 0.011719 18.176 3.7031 24.738 10.266 6.5586 6.5586 10.25 15.457 10.262 24.734v46.668c-0.011719 9.2812-3.7031 18.176-10.262 24.738-6.5625 6.5586-15.457 10.25-24.738 10.262h-46.668c-9.2773-0.011719-18.176-3.7031-24.734-10.262-6.5625-6.5625-10.254-15.457-10.266-24.738v-46.668c0.011719-9.2773 3.7031-18.176 10.266-24.734 6.5586-6.5625 15.457-10.254 24.734-10.266zm-11.664 81.668c0.007812 6.4414 5.2266 11.66 11.664 11.668h46.668c6.4414-0.007813 11.66-5.2266 11.668-11.668v-46.668c-0.007813-6.4375-5.2266-11.656-11.668-11.664h-46.668c-6.4375 0.007812-11.656 5.2266-11.664 11.664zm-23.332 116.67h-0.003907c0.011719-9.2812 3.7031-18.176 10.266-24.738 6.5586-6.5625 15.457-10.254 24.734-10.262h46.668c9.2812 0.007812 18.176 3.6992 24.738 10.262 6.5586 6.5625 10.25 15.457 10.262 24.738v46.668-0.003907c-0.011719 9.2812-3.7031 18.176-10.262 24.738-6.5625 6.5625-15.457 10.254-24.738 10.262h-46.668c-9.2773-0.007812-18.176-3.6992-24.734-10.262-6.5625-6.5625-10.254-15.457-10.266-24.738zm23.332 46.668v-0.003907c0.007812 6.4414 5.2266 11.66 11.664 11.668h46.668c6.4414-0.007812 11.66-5.2266 11.668-11.668v-46.664c-0.007813-6.4414-5.2266-11.66-11.668-11.668h-46.668c-6.4375 0.007812-11.656 5.2266-11.664 11.668zm-23.332 116.67-0.003907-0.003906c0.011719-9.2812 3.7031-18.176 10.266-24.738 6.5586-6.5586 15.457-10.25 24.734-10.262h46.668c9.2812 0.011719 18.176 3.7031 24.738 10.262 6.5586 6.5625 10.25 15.457 10.262 24.738v46.668c-0.011719 9.2773-3.7031 18.176-10.262 24.734-6.5625 6.5625-15.457 10.254-24.738 10.266h-46.668c-9.2773-0.011719-18.176-3.7031-24.734-10.266-6.5625-6.5586-10.254-15.457-10.266-24.734zm23.332 46.668v-0.003906c0.007812 6.4375 5.2266 11.656 11.664 11.664h46.668c6.4414-0.007812 11.66-5.2266 11.668-11.664v-46.668c-0.007813-6.4414-5.2266-11.66-11.668-11.668h-46.668c-6.4375 0.007813-11.656 5.2266-11.664 11.668z"/>
</svg>
